<svg aria-hidden="true" style="width:0;height:0;position:absolute;overflow:hidden" xmlns="http://www.w3.org/2000/svg"><defs><symbol id="icon-play-button" viewBox="0 0 32 32"><path fill="#4985ff" style="fill:var(--color1,#4985ff)" d="M32 16c0 8.837-7.163 16-16 16S0 24.837 0 16 7.163 0 16 0s16 7.163 16 16z"/><path fill="#fff" style="fill:var(--color2,#fff)" d="M16 0C7.164 0 0 7.163 0 16s7.164 16 16 16 16-7.163 16-16S24.836 0 16 0zm5.53 16.848-8 5A1.002 1.002 0 0 1 12 21V11a1.002 1.002 0 0 1 1.53-.848l8 5a1 1 0 0 1 0 1.696z"/></symbol><symbol id="icon-quality" viewBox="0 0 32 32"><path fill="#4985ff" style="fill:var(--color1,#4985ff)" d="M31.466 0h-24a.533.533 0 0 0-.533.533v8H8V1.066h22.933v29.333a.525.525 0 0 1-.491.533c-.046 0-.092-.004-.138-.005-.094-.003-.189-.005-.282-.014-.008 0-.015 0-.023-.003a3.738 3.738 0 0 1-3.31-3.307c0-.008-.003-.016-.004-.023a3.738 3.738 0 0 1-.019-.381v-1.067a.533.533 0 0 0-.533-.533H8v-9.6H6.933v9.6H2.666a.533.533 0 0 0-.533.533v1.067a4.805 4.805 0 0 0 4.8 4.8h23.52a1.589 1.589 0 0 0 1.547-1.6V.532a.533.533 0 0 0-.533-.533zM6.933 30.933A3.736 3.736 0 0 1 3.2 27.2v-.533h22.4v.533c.001.176.011.352.03.526.005.046.014.091.02.137.018.129.039.258.067.384l.033.132c.032.129.069.255.112.38l.038.107c.048.132.103.261.164.389l.037.077a4.6 4.6 0 0 0 .22.394l.031.053c.087.136.181.268.281.395l.017.023c.116.146.241.286.373.418.115.114.234.22.357.32l-20.449-.002z"/><path fill="#4985ff" style="fill:var(--color1,#4985ff)" d="M17.6 14.933a.534.534 0 0 0 .377-.156l2.133-2.133a.534.534 0 0 0 0-.754l-2.133-2.133a.534.534 0 0 0-.377-.156H2.667a2.667 2.667 0 1 0 0 5.334H17.6zm-.138-4.183 1.517 1.517-1.517 1.517-.379-1.517.379-1.517zm-13.195-.083h12.117l-.267 1.067H5.333v1.067h10.784l.267 1.067H4.267v-3.2zm-3.2 1.6a1.6 1.6 0 0 1 1.6-1.6H3.2v3.2h-.533a1.6 1.6 0 0 1-1.6-1.6zm11.199 10.666h16a.533.533 0 0 0 .533-.533v-16a.533.533 0 0 0-.911-.377l-16 16a.534.534 0 0 0 .377.91zM27.733 7.687v1.379h-1.067v1.067h1.067V11.2h-1.067v1.067h1.067v1.067h-1.067v1.067h1.067v1.067h-1.067v1.067h1.067v1.067h-1.067v1.067h1.067v1.067h-1.067v1.067h1.067v1.067h-1.067v-1.067h-1.067v1.067h-1.067v-1.067h-1.067v1.067h-1.067v-1.067h-1.067v1.067h-1.067v-1.067h-1.067v1.067H18.13v-1.067h-1.067v1.067h-1.067v-1.067h-1.067v1.067H13.55L27.729 7.691z"/><path fill="#4985ff" style="fill:var(--color1,#4985ff)" d="M19.993 19.733h5.075a.533.533 0 0 0 .533-.533v-5.075a.533.533 0 0 0-.91-.377l-5.075 5.075a.534.534 0 0 0 .377.91zm4.541-4.32v3.253h-3.253l3.253-3.253zm0-12.213H13.867v1.067h10.667V3.2zm1.6 2.133H12.267V6.4h13.867V5.333zm-13.867 11.2h-3.2V17.6h3.2v-1.067zM11.2 18.667H9.067v1.067H11.2v-1.067z"/></symbol><symbol id="icon-standarts" viewBox="0 0 32 32"><path fill="#4985ff" style="fill:var(--color1,#4985ff)" d="M12.626 22.425a.528.528 0 0 1-.342-.126l-3.419-2.911a.527.527 0 0 1 0-.804l3.419-2.911a.529.529 0 0 1 .685.805l-2.946 2.509 2.946 2.509a.529.529 0 0 1-.343.931zm6.748 0a.529.529 0 0 1-.342-.931l2.946-2.509-2.946-2.509a.529.529 0 0 1 .684-.805l3.419 2.911a.527.527 0 0 1 0 .804l-3.419 2.911a.523.523 0 0 1-.342.126zm-4.584 2.184a.529.529 0 0 1-.518-.638l2.131-10.116a.529.529 0 0 1 1.034.218l-2.131 10.116a.528.528 0 0 1-.516.42z"/><path fill="#4985ff" style="fill:var(--color1,#4985ff)" d="M28.453 30.12H3.547A3.55 3.55 0 0 1 0 26.573V5.434a3.55 3.55 0 0 1 3.547-3.547h24.906A3.55 3.55 0 0 1 32 5.434v21.139a3.55 3.55 0 0 1-3.547 3.547zM3.547 2.944a2.494 2.494 0 0 0-2.491 2.491v21.139a2.494 2.494 0 0 0 2.491 2.491h24.906a2.494 2.494 0 0 0 2.491-2.491V5.435a2.494 2.494 0 0 0-2.491-2.491H3.547z"/><path fill="#4985ff" style="fill:var(--color1,#4985ff)" d="M31.472 10.346H.529a.527.527 0 1 1 0-1.056h30.943a.528.528 0 0 1 0 1.056zM9.026 7.818c-.922 0-1.672-.75-1.672-1.672s.75-1.672 1.672-1.672c.922 0 1.672.75 1.672 1.672s-.75 1.672-1.672 1.672zm0-2.287a.616.616 0 1 0 .002 1.232.616.616 0 0 0-.002-1.232zM3.891 7.802c-.922 0-1.672-.75-1.672-1.672s.75-1.672 1.672-1.672c.922 0 1.672.75 1.672 1.672s-.75 1.672-1.672 1.672zm0-2.287a.616.616 0 1 0 .002 1.232.616.616 0 0 0-.002-1.232zm10.272 2.319c-.921 0-1.672-.75-1.672-1.672s.75-1.672 1.672-1.672c.922 0 1.672.75 1.672 1.672s-.75 1.672-1.672 1.672zm0-2.287a.616.616 0 1 0 .002 1.232.616.616 0 0 0-.002-1.232z"/></symbol></defs></svg>