<svg aria-hidden="true" style="position:absolute;width:0;height:0;overflow:hidden" xmlns="http://www.w3.org/2000/svg">
  <defs>
    <symbol id="icon-play-button" viewBox="0 0 32 32">
      <path fill="#4985ff" style="fill:var(--color1, #4985ff)" d="M32 16c0 8.837-7.163 16-16 16S0 24.837 0 16 7.163 0 16 0s16 7.163 16 16z"/>
      <path fill="#fff" style="fill:var(--color2, #fff)" d="M16 0C7.164 0 0 7.163 0 16s7.164 16 16 16 16-7.163 16-16S24.836 0 16 0zm5.53 16.848-8 5A1.002 1.002 0 0 1 12 21V11a1.002 1.002 0 0 1 1.53-.848l8 5a1 1 0 0 1 0 1.696z"/>
    </symbol>
    <symbol id="icon-call" viewBox="0 0 32 32">
      <path d="M31.16 24.687l-6.477-4.319c-0.822-0.544-1.924-0.365-2.531 0.411l-1.887 2.426c-0.242 0.32-0.683 0.412-1.034 0.218l-0.359-0.198c-1.19-0.648-2.67-1.456-5.652-4.439s-3.791-4.465-4.44-5.652l-0.197-0.359c-0.198-0.351-0.107-0.793 0.213-1.038l2.424-1.886c0.776-0.608 0.955-1.709 0.412-2.531l-4.319-6.477c-0.557-0.837-1.673-1.089-2.535-0.571l-2.708 1.627c-0.851 0.5-1.475 1.311-1.742 2.261-0.975 3.554-0.242 9.687 8.793 18.722 7.187 7.186 12.537 9.118 16.214 9.118 0.846 0.004 1.689-0.106 2.506-0.327 0.951-0.266 1.761-0.891 2.261-1.742l1.629-2.707c0.519-0.862 0.268-1.979-0.57-2.536zM30.812 26.676l-1.625 2.708c-0.359 0.614-0.942 1.066-1.626 1.261-3.281 0.901-9.012 0.155-17.685-8.519s-9.419-14.404-8.519-17.685c0.195-0.685 0.647-1.269 1.262-1.629l2.708-1.625c0.374-0.225 0.859-0.116 1.1 0.247l4.316 6.476c0.236 0.357 0.158 0.835-0.178 1.099l-2.425 1.886c-0.738 0.564-0.949 1.585-0.494 2.395l0.193 0.35c0.682 1.25 1.529 2.805 4.622 5.898s4.648 3.94 5.897 4.622l0.35 0.193c0.81 0.454 1.831 0.243 2.395-0.494l1.886-2.425c0.264-0.336 0.742-0.414 1.099-0.178l6.476 4.319c0.364 0.241 0.473 0.726 0.247 1.1z"></path>
      <path d="M18.133 5.336c5.004 0.006 9.060 4.061 9.065 9.065 0 0.295 0.239 0.533 0.533 0.533s0.533-0.239 0.533-0.533c-0.006-5.593-4.539-10.126-10.132-10.132-0.294 0-0.533 0.239-0.533 0.533s0.239 0.533 0.533 0.533z"></path>
      <path d="M18.133 8.536c3.238 0.004 5.862 2.628 5.866 5.866 0 0.294 0.239 0.533 0.533 0.533s0.533-0.239 0.533-0.533c-0.004-3.827-3.106-6.928-6.932-6.932-0.294 0-0.533 0.239-0.533 0.533s0.239 0.533 0.533 0.533z"></path>
      <path d="M18.133 11.736c1.472 0.002 2.665 1.194 2.666 2.666 0 0.295 0.239 0.533 0.533 0.533s0.533-0.239 0.533-0.533c-0.002-2.061-1.672-3.73-3.733-3.733-0.294 0-0.533 0.239-0.533 0.533s0.239 0.533 0.533 0.533z"></path>
    </symbol>
    <symbol id="icon-envelope" viewBox="0 0 32 32">
      <path d="M28.093 3.823h-24.18c-2.158 0-3.913 1.755-3.913 3.913v16.526c0 2.159 1.755 3.913 3.913 3.913h24.174c2.159 0 3.913-1.755 3.913-3.913v-16.52c0.007-2.159-1.748-3.92-3.907-3.92zM30.219 24.263c0 1.172-0.953 2.125-2.125 2.125h-24.18c-1.172 0-2.125-0.953-2.125-2.125v-16.52c0-1.172 0.953-2.125 2.125-2.125h24.174c1.172 0 2.125 0.953 2.125 2.125v16.52h0.007z"></path>
      <path d="M20.181 15.795l7.826-7.018c0.364-0.331 0.397-0.894 0.066-1.265-0.331-0.364-0.894-0.397-1.265-0.066l-10.792 9.687-2.105-1.88c-0.007-0.007-0.013-0.013-0.013-0.020-0.046-0.046-0.093-0.086-0.146-0.126l-8.568-7.667c-0.371-0.331-0.934-0.298-1.265 0.073s-0.298 0.934 0.073 1.265l7.919 7.078-7.886 7.383c-0.358 0.338-0.377 0.9-0.040 1.265 0.179 0.185 0.417 0.285 0.656 0.285 0.218 0 0.437-0.080 0.609-0.238l8.005-7.488 2.172 1.94c0.172 0.152 0.384 0.225 0.596 0.225s0.43-0.079 0.596-0.232l2.231-2 7.959 7.561c0.172 0.165 0.397 0.245 0.616 0.245 0.238 0 0.47-0.093 0.649-0.278 0.338-0.358 0.324-0.927-0.033-1.265l-7.859-7.462z"></path>
    </symbol>
    <symbol id="icon-point" viewBox="0 0 32 32">
      <path d="M15.978 0c-6.467 0-11.728 5.261-11.728 11.728 0 2.971 1.872 7.168 5.564 12.475 2.698 3.88 5.353 6.882 5.464 7.008l0.7 0.789 0.7-0.789c0.112-0.126 2.766-3.128 5.464-7.008 3.692-5.307 5.564-9.505 5.564-12.475 0-6.467-5.261-11.728-11.728-11.728zM20.616 23.12c-1.824 2.624-3.667 4.882-4.639 6.035-0.969-1.149-2.805-3.399-4.628-6.019-3.421-4.917-5.229-8.862-5.229-11.407 0-5.435 4.422-9.857 9.857-9.857s9.857 4.422 9.857 9.857c0 2.542-1.804 6.481-5.218 11.392z"></path>
      <path d="M15.976 4.334c-3.817 0-6.922 3.105-6.922 6.922s3.105 6.922 6.922 6.922c3.817 0 6.922-3.105 6.922-6.922s-3.105-6.922-6.922-6.922zM15.976 16.307c-2.785 0-5.051-2.266-5.051-5.051s2.266-5.051 5.051-5.051c2.785 0 5.051 2.266 5.051 5.051s-2.266 5.051-5.051 5.051z"></path>
    </symbol>
    <symbol id="icon-right-arrow" viewBox="0 0 32 32">
      <path d="M10.024 30.090c-0.198 0.198-0.447 0.298-0.719 0.298s-0.521-0.099-0.719-0.298c-0.397-0.397-0.397-1.042 0-1.439l12.651-12.651-12.651-12.651c-0.397-0.397-0.397-1.042 0-1.439s1.042-0.397 1.439 0l13.371 13.371c0.397 0.397 0.397 1.042 0 1.439l-13.371 13.371z"></path>
    </symbol>
    <symbol id="icon-quality" viewBox="0 0 32 32">
      <path fill="#4985ff" style="fill:var(--color1, #4985ff)" d="M31.466 0h-24a.533.533 0 0 0-.533.533v8H8V1.066h22.933v29.333a.525.525 0 0 1-.491.533c-.046 0-.092-.004-.138-.005-.094-.003-.189-.005-.282-.014-.008 0-.015 0-.023-.003a3.738 3.738 0 0 1-3.31-3.307c0-.008-.003-.016-.004-.023a3.738 3.738 0 0 1-.019-.381v-1.067a.533.533 0 0 0-.533-.533H8v-9.6H6.933v9.6H2.666a.533.533 0 0 0-.533.533v1.067a4.805 4.805 0 0 0 4.8 4.8h23.52a1.589 1.589 0 0 0 1.547-1.6V.532a.533.533 0 0 0-.533-.533zM6.933 30.933A3.736 3.736 0 0 1 3.2 27.2v-.533h22.4v.533c.001.176.011.352.03.526.005.046.014.091.02.137.018.129.039.258.067.384l.033.132c.032.129.069.255.112.38l.038.107c.048.132.103.261.164.389l.037.077a4.6 4.6 0 0 0 .22.394l.031.053c.087.136.181.268.281.395l.017.023c.116.146.241.286.373.418.115.114.234.22.357.32l-20.449-.002z"/>
      <path fill="#4985ff" style="fill:var(--color1, #4985ff)" d="M17.6 14.933a.534.534 0 0 0 .377-.156l2.133-2.133a.534.534 0 0 0 0-.754l-2.133-2.133a.534.534 0 0 0-.377-.156H2.667a2.667 2.667 0 1 0 0 5.334H17.6zm-.138-4.183 1.517 1.517-1.517 1.517-.379-1.517.379-1.517zm-13.195-.083h12.117l-.267 1.067H5.333v1.067h10.784l.267 1.067H4.267v-3.2zm-3.2 1.6a1.6 1.6 0 0 1 1.6-1.6H3.2v3.2h-.533a1.6 1.6 0 0 1-1.6-1.6zM12.266 22.933h16a.533.533 0 0 0 .533-.533v-16a.533.533 0 0 0-.911-.377l-16 16a.534.534 0 0 0 .377.91zM27.733 7.687v1.379h-1.067v1.067h1.067V11.2h-1.067v1.067h1.067v1.067h-1.067v1.067h1.067v1.067h-1.067v1.067h1.067v1.067h-1.067v1.067h1.067v1.067h-1.067v1.067h1.067v1.067h-1.067v-1.067h-1.067v1.067h-1.067v-1.067h-1.067v1.067h-1.067v-1.067h-1.067v1.067h-1.067v-1.067h-1.067v1.067H18.13v-1.067h-1.067v1.067h-1.067v-1.067h-1.067v1.067H13.55L27.729 7.691z"/>
      <path fill="#4985ff" style="fill:var(--color1, #4985ff)" d="M19.993 19.733h5.075a.533.533 0 0 0 .533-.533v-5.075a.533.533 0 0 0-.91-.377l-5.075 5.075a.534.534 0 0 0 .377.91zm4.541-4.32v3.253h-3.253l3.253-3.253zM24.534 3.2H13.867v1.067h10.667V3.2zM26.134 5.333H12.267V6.4h13.867V5.333zM12.267 16.533h-3.2V17.6h3.2v-1.067zM11.2 18.667H9.067v1.067H11.2v-1.067z"/>
    </symbol>
    <symbol id="icon-standarts" viewBox="0 0 32 32">
      <path fill="#4985ff" style="fill:var(--color1, #4985ff)" d="M12.626 22.425a.528.528 0 0 1-.342-.126l-3.419-2.911a.527.527 0 0 1 0-.804l3.419-2.911a.529.529 0 0 1 .685.805l-2.946 2.509 2.946 2.509a.529.529 0 0 1-.343.931zM19.374 22.425a.529.529 0 0 1-.342-.931l2.946-2.509-2.946-2.509a.529.529 0 0 1 .684-.805l3.419 2.911a.527.527 0 0 1 0 .804l-3.419 2.911a.523.523 0 0 1-.342.126zM14.79 24.609a.529.529 0 0 1-.518-.638l2.131-10.116a.529.529 0 0 1 1.034.218l-2.131 10.116a.528.528 0 0 1-.516.42z"/>
      <path fill="#4985ff" style="fill:var(--color1, #4985ff)" d="M28.453 30.12H3.547A3.55 3.55 0 0 1 0 26.573V5.434a3.55 3.55 0 0 1 3.547-3.547h24.906A3.55 3.55 0 0 1 32 5.434v21.139a3.55 3.55 0 0 1-3.547 3.547zM3.547 2.944a2.494 2.494 0 0 0-2.491 2.491v21.139a2.494 2.494 0 0 0 2.491 2.491h24.906a2.494 2.494 0 0 0 2.491-2.491V5.435a2.494 2.494 0 0 0-2.491-2.491H3.547z"/>
      <path fill="#4985ff" style="fill:var(--color1, #4985ff)" d="M31.472 10.346H.529a.527.527 0 1 1 0-1.056h30.943a.528.528 0 0 1 0 1.056zM9.026 7.818c-.922 0-1.672-.75-1.672-1.672s.75-1.672 1.672-1.672c.922 0 1.672.75 1.672 1.672s-.75 1.672-1.672 1.672zm0-2.287a.616.616 0 1 0 .002 1.232.616.616 0 0 0-.002-1.232zM3.891 7.802c-.922 0-1.672-.75-1.672-1.672s.75-1.672 1.672-1.672c.922 0 1.672.75 1.672 1.672s-.75 1.672-1.672 1.672zm0-2.287a.616.616 0 1 0 .002 1.232.616.616 0 0 0-.002-1.232zM14.163 7.834c-.921 0-1.672-.75-1.672-1.672s.75-1.672 1.672-1.672c.922 0 1.672.75 1.672 1.672s-.75 1.672-1.672 1.672zm0-2.287a.616.616 0 1 0 .002 1.232.616.616 0 0 0-.002-1.232z"/>
    </symbol>
  </defs>
</svg>
